<svg id="Layer_1" data-name="Layer 1" xmlns="http://www.w3.org/2000/svg" viewBox="0 0 298.89 298.89"><defs><style>.cls-1,.cls-2{fill:#5d6fce;}.cls-2{fill-rule:evenodd;}</style></defs><path class="cls-1" d="M586.31,866.58c-82.41,0-149.45-67-149.45-149.44s67-149.45,149.45-149.45,149.44,67,149.44,149.45S668.71,866.58,586.31,866.58Zm0-282.83A133.53,133.53,0,0,0,452.92,717.14c0,73.55,59.83,133.38,133.39,133.38s133.38-59.83,133.38-133.38S659.86,583.75,586.31,583.75Z" transform="translate(-436.86 -567.69)"/><path class="cls-2" d="M562.87,717.84v86.62a2.26,2.26,0,0,0,2.26,2.25h32.16a2.26,2.26,0,0,0,2.26-2.25v-88h23.31a2.25,2.25,0,0,0,2.25-2.06l2.25-26.53a2.26,2.26,0,0,0-2.25-2.44H599.55V666.58a8,8,0,0,1,8-8h18a2.26,2.26,0,0,0,2.26-2.25V629.82a2.26,2.26,0,0,0-2.26-2.26H595.14a32.27,32.27,0,0,0-32.27,32.27V685.4H546.79a2.26,2.26,0,0,0-2.26,2.25v26.53a2.26,2.26,0,0,0,2.26,2.25h16.08Z" transform="translate(-436.86 -567.69)"/></svg>