<svg id="Layer_1" data-name="Layer 1" xmlns="http://www.w3.org/2000/svg" viewBox="0 0 157.94 245.3"><defs><style>.cls-1{fill:#5d6fce;}</style></defs><path class="cls-1" d="M714.71,834.07A35.29,35.29,0,1,0,750,869.36,35.33,35.33,0,0,0,714.71,834.07Zm0,60.6A25.31,25.31,0,1,1,740,869.36,25.33,25.33,0,0,1,714.71,894.67Z" transform="translate(-592.06 -659.35)"/><path class="cls-1" d="M656.17,750.51A5,5,0,0,0,659.7,749l29.77-29.76a35.21,35.21,0,1,0-6-8.16L652.64,742a5,5,0,0,0,3.53,8.53Zm58.54-81.18a25.31,25.31,0,1,1-25.31,25.31A25.34,25.34,0,0,1,714.71,669.33Z" transform="translate(-592.06 -659.35)"/><path class="cls-1" d="M679.75,838.17l-29.42-29.42a35.27,35.27,0,1,0-8.64,5.48l31,31a5,5,0,1,0,7.06-7.06ZM602,782a25.31,25.31,0,1,1,25.31,25.31A25.34,25.34,0,0,1,602,782Z" transform="translate(-592.06 -659.35)"/></svg>