<svg id="Layer_1" data-name="Layer 1" xmlns="http://www.w3.org/2000/svg" viewBox="0 0 199.26 199.26"><defs><style>.cls-1,.cls-2{fill:#5d6fce;}.cls-2{fill-rule:evenodd;}</style></defs><path class="cls-1" d="M563.2,730.32a99.63,99.63,0,1,1,99.63-99.62A99.74,99.74,0,0,1,563.2,730.32Zm0-188.55a88.93,88.93,0,1,0,88.93,88.93A89,89,0,0,0,563.2,541.77Z" transform="translate(-463.57 -531.07)"/><path class="cls-1" d="M620.46,594.34a47.82,47.82,0,0,1-11.73,3.34c1.89-.31,4.68-3.73,5.79-5.12a21.61,21.61,0,0,0,3.91-7.11c.1-.2.18-.46,0-.61a.69.69,0,0,0-.63,0,59.83,59.83,0,0,1-13.93,5.33.93.93,0,0,1-1-.25,12.09,12.09,0,0,0-1.22-1.25,24.41,24.41,0,0,0-6.75-4.13,23.32,23.32,0,0,0-10.35-1.67,24.84,24.84,0,0,0-9.82,2.77,25.34,25.34,0,0,0-7.92,6.48,24.38,24.38,0,0,0-4.74,9.47,26,26,0,0,0-.25,10c.08.56,0,.63-.48.56-19.13-2.85-35-9.7-47.88-24.37-.56-.64-.86-.64-1.32,0-5.63,8.44-2.9,22,4.14,28.68.94.89,1.9,1.78,2.94,2.59a24.36,24.36,0,0,1-9.23-2.59c-.56-.35-.85-.15-.89.49a13.57,13.57,0,0,0,.15,2.74,24.55,24.55,0,0,0,15.13,19.57,14.17,14.17,0,0,0,3.07.94c-1.85.4-3.76.69-9.06.28-.66-.13-.92.2-.66.84,4,10.86,12.59,14.1,19,15.94.86.15,1.72.15,2.59.35-.06.08-.11.08-.16.16-2.13,3.26-9.55,5.68-13,6.89a46.51,46.51,0,0,1-19.74,2.52c-1.07-.15-1.29-.14-1.58,0s0,.44.31.71c1.34.89,2.71,1.68,4.11,2.44a64.87,64.87,0,0,0,13.2,5.28c23.72,6.55,50.44,1.74,68.26-16,14-13.9,18.89-33.06,18.89-52.25,0-.75.88-1.17,1.41-1.56a46.33,46.33,0,0,0,9.25-9.66,2.8,2.8,0,0,0,.57-1.85v-.1C620.9,594,620.94,594.12,620.46,594.34Z" transform="translate(-463.57 -531.07)"/><path class="cls-2" d="M539.26,678.11Z" transform="translate(-463.57 -531.07)"/><path class="cls-2" d="M539.26,678.11Z" transform="translate(-463.57 -531.07)"/><path class="cls-2" d="M543.17,678.21c0-.2,2.06,0,0,0C543.17,678.11,543.42,678.21,543.17,678.21Z" transform="translate(-463.57 -531.07)"/><path class="cls-2" d="M584.25,583a.44.44,0,0,1-.49,0Z" transform="translate(-463.57 -531.07)"/></svg>